<svg xmlns="http://www.w3.org/2000/svg" fill="none" viewBox="0 0 346 69" class="hidden h-full md:block"><path fill="url(#i-443586001__a)" d="m100.98 38.777-5.74 7.193v7.434h-8.824V14.475h8.823v17.771l14.019-17.77h10.998l-13.293 16.68 13.353 22.063h-10.574l-8.762-14.446v.004Z"></path><path fill="url(#i-443586001__b)" d="M129.498 53.223V14.475h8.823v38.748h-8.823Z"></path><path fill="url(#i-443586001__c)" d="M179.463 22.455h-11.538v30.768h-8.823V22.455h-11.659v-7.98h32.02v7.98Z"></path><path fill="url(#i-443586001__d)" d="M189.794 19.436c1.211-1.851 2.901-3.283 5.076-4.29 2.174-1.008 4.711-1.51 7.612-1.51s5.326.493 7.522 1.48c2.196.986 3.908 2.387 5.136 4.199 1.227 1.812 1.863 3.888 1.902 6.228h-9.122c-.039-1.328-.613-2.41-1.72-3.235-1.107-.826-2.507-1.241-4.198-1.241-1.491 0-2.689.341-3.596 1.029-.908.688-1.358 1.613-1.358 2.78 0 1.09.394 1.904 1.18 2.449.787.545 1.941.999 3.476 1.358l6.104 1.388c3.424.809 5.992 2.197 7.703 4.17 1.712 1.976 2.568 4.372 2.568 7.192 0 2.539-.635 4.758-1.902 6.648-1.271 1.894-3.061 3.356-5.378 4.38-2.317 1.026-5.005 1.54-8.066 1.54-4.591 0-8.309-1.107-11.149-3.325-2.84-2.215-4.401-5.238-4.682-9.066h9.061c.121 1.57.796 2.79 2.023 3.66 1.228.869 2.849 1.297 4.864 1.297 1.85 0 3.302-.372 4.348-1.12 1.047-.744 1.57-1.76 1.57-3.054 0-1.047-.342-1.864-1.029-2.448-.688-.584-1.652-1.016-2.901-1.297l-6.402-1.51c-3.627-.847-6.273-2.236-7.946-4.169-1.673-1.933-2.507-4.269-2.507-7.01 0-2.5.605-4.676 1.811-6.527v.004Z"></path><path fill="url(#i-443586001__e)" d="M228.342 14.48h8.823v23.938c.039 2.578.787 4.503 2.235 5.774 1.448 1.272 3.385 1.903 5.801 1.903 2.62 0 4.63-.675 6.044-2.024 1.409-1.35 2.114-3.235 2.114-5.653V14.48h8.823v24.302c0 4.835-1.539 8.585-4.622 11.245-3.082 2.66-7.202 3.987-12.355 3.987-5.152 0-9.302-1.358-12.324-4.078-3.022-2.72-4.531-6.436-4.531-11.154V14.48h-.008Z"></path><path fill="url(#i-443586001__f)" d="M307.551 14.48v38.747h-8.218l-15.891-23.454v23.454h-8.702V14.48h8.218l15.831 23.515V14.48h8.762Z"></path><path fill="url(#i-443586001__g)" d="M345.916 14.48h-25.557v7.98h25.557v-7.98Z"></path><path fill="url(#i-443586001__h)" d="M345.916 45.235h-25.557v7.98h25.557v-7.98Z"></path><path fill="url(#i-443586001__i)" d="M342.246 29.998h-21.887v7.365h21.887v-7.365Z"></path><path fill="url(#i-443586001__j)" d="M327.721 53.193V31.295h-7.362v21.898h7.362Z"></path><path fill="url(#i-443586001__k)" d="M67.049 39.815c-.108-6.176-3.238-11.872-5.326-15.098a27.186 27.186 0 0 0-4.841-5.592c-.48-.424-.575-.822-.437-1.445 1.383-6.146.437-11.963-2.512-17.594-3.86 3.084-6.817 6.717-8.78 11.189-.63 0-1.275.039-1.915-.009-.177-.013-.406-.238-.51-.424-2.178-3.88-5.153-7.032-8.78-9.575-.514-.364-1.085-.645-1.625-.97l-.199.126c.156 1.536.255 3.075.467 4.602.333 2.374.74 4.745 1.115 7.106.441 2.785-.423 5.216-2.057 7.404-2.05 2.747-4.751 4.697-7.808 6.18-1.724.84-1.854 1.74-.384 3.033 1.53 1.35 3.389 1.894 5.364 1.903 3.7.013 7.034-1.133 9.926-3.482.073-.06.142-.117.203-.186.03-.03.035-.082.06-.16a15.955 15.955 0 0 1-4.755 1.7c-1.768.32-3.29.272-4.729.225a30.138 30.138 0 0 1-2.775-.22c-.299-.057-.601-.109-.9-.165.204-.013.506-.035.865-.074 1.582-.177 4.444-.696 8.477-2.923 3.251-1.795 2.745-2.206 5.175-3.244 1.548-.662 3.285-1.406 5.572-1.272 3.165.182 5.335 1.92 6.242 2.651 2.72 2.176 3.83 4.896 4.254 6.18-.32-.574-1.807-3.083-4.954-4.034-2.222-.67-4.115-.212-4.885.026 1.565.467 2.974 1.224 4.276 2.175 2.576 1.886 4.491 4.32 5.861 7.167 2.482 5.146 3.29 10.505 2.37 16.01 2.247-.112 3.903-.579 4.919-.964a2.706 2.706 0 0 0 1.582-1.63c1.288-3.637 1.466-6.704 1.435-8.611l.009-.005Zm-26.5-21.231a11.15 11.15 0 0 0-3.164 1.254c.368-1.176 1.012-1.76 1.345-2.01 1.586-1.203 4.227-.974 6.467.7a11.141 11.141 0 0 0-4.648.056Z"></path><path fill="url(#i-443586001__l)" d="M42.085 29.63c3.194 1.583 5.503 4.104 7.297 7.106 2.42 4.03 3.523 8.464 3.618 13.144 0 .203.009.398.004.6a25.979 25.979 0 0 1-.747-.168c-3.697-.904-7.579-2.63-11.534-5.138-2.507-1.592-5.123-3.17-7.825-4.524.683-.463 1.37-.917 2.063-1.367 1.504-.981 2.982-2.037 4.305-3.243 2.248-2.068 2.572-4.239 1.189-7.041.618.237 1.141.393 1.625.635l.005-.004Z"></path><path fill="url(#i-443586001__m)" d="M64.932 50.667c-.073.194-.147.398-.225.61-2.1 5.665-7.288 15.06-17.69 17.191-6.19 1.272-14.222-.021-24.549-6.184a19.133 19.133 0 0 0-.7-.398c.039-.04.073-.087.108-.134a1.324 1.324 0 0 0-.1-1.657c-2.438-2.707-6.998-4.45-9.432-5.229 1.677-2.322 5.23-4.329 6.674-4.995.35-.16.61-.467.727-.84a1.33 1.33 0 0 0-.16-1.089c-1.734-2.694-5.231-3.694-7.626-4.066a16.28 16.28 0 0 1 6.32-4.55c.42-.168.71-.536.8-.964.052-.25.311-.407.566-.372 6.722.93 13.35 4.727 18.861 8.187 8.244 5.169 14.78 6.332 19.293 6.18 4.293-.138 6.753-1.474 7.094-1.669.026-.021.048-.026.048-.026l-.009.005Z"></path><path fill="#F1F2F2" d="M3.624 66.82C-3.21 57.804.27 44.423 10.467 39.696c2.4-1.112 4.846-1.583 7.306-1.596-2.481 1.003-5.814 3.001-8.287 6.894 0 0 6.605-.013 8.97 3.672 0 0-6.614 3.027-8.062 7.02 0 0 7.254 1.833 10.388 5.301-10.708-4.411-17.158 5.835-17.158 5.835Z"></path><defs><linearGradient id="i-443586001__a" x1="68.381" x2="337.27" y1="33.942" y2="33.942" gradientUnits="userSpaceOnUse"><stop stop-color="#F2654A"></stop><stop offset="1" stop-color="#BC2C19"></stop></linearGradient><linearGradient id="i-443586001__b" x1="68.381" x2="337.271" y1="33.851" y2="33.851" gradientUnits="userSpaceOnUse"><stop stop-color="#F2654A"></stop><stop offset="1" stop-color="#BC2C19"></stop></linearGradient><linearGradient id="i-443586001__c" x1="68.382" x2="337.271" y1="33.851" y2="33.851" gradientUnits="userSpaceOnUse"><stop stop-color="#F2654A"></stop><stop offset="1" stop-color="#BC2C19"></stop></linearGradient><linearGradient id="i-443586001__d" x1="68.381" x2="337.271" y1="33.821" y2="33.821" gradientUnits="userSpaceOnUse"><stop stop-color="#F2654A"></stop><stop offset="1" stop-color="#BC2C19"></stop></linearGradient><linearGradient id="i-443586001__e" x1="68.381" x2="337.271" y1="34.245" y2="34.245" gradientUnits="userSpaceOnUse"><stop stop-color="#F2654A"></stop><stop offset="1" stop-color="#BC2C19"></stop></linearGradient><linearGradient id="i-443586001__f" x1="68.381" x2="337.271" y1="33.851" y2="33.851" gradientUnits="userSpaceOnUse"><stop stop-color="#F2654A"></stop><stop offset="1" stop-color="#BC2C19"></stop></linearGradient><linearGradient id="i-443586001__g" x1="68.381" x2="337.271" y1="18.467" y2="18.467" gradientUnits="userSpaceOnUse"><stop stop-color="#F2654A"></stop><stop offset="1" stop-color="#BC2C19"></stop></linearGradient><linearGradient id="i-443586001__h" x1="68.381" x2="337.271" y1="49.222" y2="49.222" gradientUnits="userSpaceOnUse"><stop stop-color="#F2654A"></stop><stop offset="1" stop-color="#BC2C19"></stop></linearGradient><linearGradient id="i-443586001__i" x1="68.381" x2="337.271" y1="33.682" y2="33.682" gradientUnits="userSpaceOnUse"><stop stop-color="#F2654A"></stop><stop offset="1" stop-color="#BC2C19"></stop></linearGradient><linearGradient id="i-443586001__j" x1="68.381" x2="337.27" y1="42.242" y2="42.242" gradientUnits="userSpaceOnUse"><stop stop-color="#F2654A"></stop><stop offset="1" stop-color="#BC2C19"></stop></linearGradient><linearGradient id="i-443586001__k" x1="5.495" x2="174.958" y1="25.552" y2="25.552" gradientUnits="userSpaceOnUse"><stop stop-color="#F2654A"></stop><stop offset="1" stop-color="#BC2C19"></stop></linearGradient><linearGradient id="i-443586001__l" x1="76.078" x2="19.876" y1="28.462" y2="50.311" gradientUnits="userSpaceOnUse"><stop stop-color="#F2654A"></stop><stop offset="1" stop-color="#BC2C19"></stop></linearGradient><linearGradient id="i-443586001__m" x1="13.537" x2="83.017" y1="47.38" y2="70.062" gradientUnits="userSpaceOnUse"><stop stop-color="#F2654A"></stop><stop offset="1" stop-color="#BC2C19"></stop></linearGradient></defs></svg>